HIERARCHY
ROOT joint_Root
{
	OFFSET 0.0 0.0 0.0
	CHANNELS 6 Xposition Yposition Zposition Zrotation Xrotation Yrotation 
	JOINT Hips
	{
		OFFSET -0.726466 93.3139 -2.00062
		CHANNELS 6 Xposition Yposition Zposition Zrotation Xrotation Yrotation 
		JOINT Spine
		{
			OFFSET 15.7357 0.0 0.0
			CHANNELS 6 Xposition Yposition Zposition Zrotation Xrotation Yrotation 
			JOINT Chest
			{
				OFFSET 8.98455 -0.406207 0.0
				CHANNELS 6 Xposition Yposition Zposition Zrotation Xrotation Yrotation 
				JOINT Neck
				{
					OFFSET 16.3773 0.0 0.0
					CHANNELS 6 Xposition Yposition Zposition Zrotation Xrotation Yrotation 
					JOINT Head
					{
						OFFSET 6.45672 0.0 0.0
						CHANNELS 6 Xposition Yposition Zposition Zrotation Xrotation Yrotation 
						End Site
						{
							OFFSET 0.0 0.0 0.0
						}
					}
				}
				JOINT Shoulder_L
				{
					OFFSET 12.9942 -0.242716 4.98039
					CHANNELS 6 Xposition Yposition Zposition Zrotation Xrotation Yrotation 
					JOINT UpperArm_L
					{
						OFFSET 5.34809 0.0 0.0
						CHANNELS 6 Xposition Yposition Zposition Zrotation Xrotation Yrotation 
						JOINT LowerArm_L
						{
							OFFSET 24.3286 1.87007e-05 0.0
							CHANNELS 6 Xposition Yposition Zposition Zrotation Xrotation Yrotation 
							JOINT Hand_L
							{
								OFFSET 22.2916 0.0 0.0
								CHANNELS 6 Xposition Yposition Zposition Zrotation Xrotation Yrotation 
								End Site
								{
									OFFSET 0.0 0.0 0.0
								}
							}
						}
					}
				}
				JOINT Shoulder_R
				{
					OFFSET 12.9945 -0.242716 -4.98039
					CHANNELS 6 Xposition Yposition Zposition Zrotation Xrotation Yrotation 
					JOINT UpperArm_R
					{
						OFFSET -5.34813 0.0 0.0
						CHANNELS 6 Xposition Yposition Zposition Zrotation Xrotation Yrotation 
						JOINT LowerArm_R
						{
							OFFSET -24.3289 0.000322201 0.0
							CHANNELS 6 Xposition Yposition Zposition Zrotation Xrotation Yrotation 
							JOINT Hand_R
							{
								OFFSET -22.2915 -0.000108084 0.0
								CHANNELS 6 Xposition Yposition Zposition Zrotation Xrotation Yrotation 
								End Site
								{
									OFFSET 0.0 0.0 0.0
								}
							}
						}
					}
				}
			}
		}
		JOINT UpperLeg_L
		{
			OFFSET -2.19248 -6.46944 0.0
			CHANNELS 6 Xposition Yposition Zposition Zrotation Xrotation Yrotation 
			JOINT LowerLeg_L
			{
				OFFSET 39.0811 0.0 -1.23785e-05
				CHANNELS 6 Xposition Yposition Zposition Zrotation Xrotation Yrotation 
				JOINT Foot_L
				{
					OFFSET 40.9854 0.0 -1.26872e-05
					CHANNELS 6 Xposition Yposition Zposition Zrotation Xrotation Yrotation 
					JOINT Toes_L
					{
						OFFSET 11.7543 0.0 0.0
						CHANNELS 6 Xposition Yposition Zposition Zrotation Xrotation Yrotation 
						End Site
						{
							OFFSET 0.0 0.0 0.0
						}
					}
				}
			}
		}
		JOINT UpperLeg_R
		{
			OFFSET -2.19251 6.46944 0.0
			CHANNELS 6 Xposition Yposition Zposition Zrotation Xrotation Yrotation 
			JOINT LowerLeg_R
			{
				OFFSET -39.0811 -0.00228153 -0.0401928
				CHANNELS 6 Xposition Yposition Zposition Zrotation Xrotation Yrotation 
				JOINT Foot_R
				{
					OFFSET -40.9854 0.0 0.0
					CHANNELS 6 Xposition Yposition Zposition Zrotation Xrotation Yrotation 
					JOINT Toes_R
					{
						OFFSET -11.7543 0.0 0.0
						CHANNELS 6 Xposition Yposition Zposition Zrotation Xrotation Yrotation 
						End Site
						{
							OFFSET 0.0 0.0 0.0
						}
					}
				}
			}
		}
	}
}
MOTION
Frames:	7
Frame Time:	0.0333333
0.000000 0.000000 0.000000 0.000000 0.000000 -0.000000 -2.457230 81.361100 -35.616300 85.170900 2.079650 -3.343260 15.735700 0.000005 -0.000001 84.628800 79.928900 -81.392500 8.984550 -0.406207 -0.000000 12.349800 -1.738780 6.660180 16.377300 -0.000001 -0.000001 4.131230 -0.006688 -2.835830 6.456720 -0.000001 -0.000000 -2.168410 3.343000 1.650640 12.994200 -0.242716 4.980390 -88.442900 -3.988910 -68.655800 5.348090 -0.000007 -0.000001 -67.158500 28.874300 -3.325030 24.328600 0.000019 0.000005 6.308180 5.398900 -49.613500 22.291600 -0.000001 0.000005 -3.867460 5.629750 -13.345400 12.994500 -0.242716 -4.980390 87.176000 6.300330 -65.797400 -5.348130 -0.000001 -0.000004 -49.020700 22.946900 -22.579100 -24.328900 0.000322 -0.000009 2.700040 1.240450 -65.418500 -22.291500 -0.000108 -0.000004 0.877937 5.608330 -11.857800 -2.192480 -6.469440 -0.000000 -169.748000 -0.553005 -20.047100 39.081100 -0.000007 -0.000012 -0.236719 -0.082274 109.168000 40.985400 -0.000006 -0.000013 7.923870 -3.148420 -38.505800 11.754300 -0.000000 0.000003 -0.007294 -0.082175 -19.922400 -2.192510 6.469440 -0.000001 -168.005000 9.871060 150.899000 -39.081100 -0.002282 -0.040193 0.236220 -0.122166 62.334800 -40.985400 0.000008 0.000006 11.470500 -6.128780 -85.502700 -11.754300 -0.000006 -0.000006 -0.668532 -0.812653 -18.513700
0.000000 0.000000 0.000000 0.000000 0.000000 -0.000000 -2.130950 81.992100 -27.203100 86.912100 0.305781 -4.367570 15.735700 0.000005 -0.000001 92.341600 80.498800 -90.024400 8.984550 -0.406207 -0.000000 11.208400 0.839946 4.549920 16.377300 -0.000001 -0.000001 4.355020 -0.521221 -1.591480 6.456720 -0.000001 -0.000000 -1.210650 1.058760 1.979150 12.994200 -0.242716 4.980390 -88.463600 -3.695160 -67.402700 5.348090 -0.000007 -0.000001 -65.852900 30.914600 1.892630 24.328600 0.000019 0.000005 9.106370 7.124270 -52.283500 22.291600 -0.000001 0.000005 -6.552400 5.633420 -13.593200 12.994500 -0.242716 -4.980390 87.956900 4.703860 -66.492900 -5.348130 -0.000001 -0.000004 -47.207500 20.397000 -29.173000 -24.328900 0.000322 -0.000009 -1.245460 -0.404763 -71.878300 -22.291500 -0.000108 -0.000004 1.343530 5.594020 -10.994100 -2.192480 -6.469440 -0.000000 -174.058000 -1.169060 -30.768400 39.081100 -0.000007 -0.000012 -0.347688 -0.136278 111.404000 40.985400 -0.000006 -0.000013 9.223560 -4.833260 -43.284800 11.754300 -0.000000 0.000003 -0.006689 -0.076980 -19.710300 -2.192510 6.469440 -0.000001 -171.534000 10.896900 158.811000 -39.081100 -0.002282 -0.040193 0.194885 -0.118341 58.308600 -40.985400 0.000008 0.000006 11.249100 -3.633570 -88.395200 -11.754300 -0.000006 -0.000006 -1.402680 -1.635870 -20.050300
0.000000 0.000000 0.000000 0.000000 0.000000 -0.000000 -1.449370 84.271200 -18.043300 89.764000 -2.503710 -5.595380 15.735700 0.000005 -0.000001 101.973000 80.892900 -101.219000 8.984550 -0.406207 -0.000000 10.043400 3.769350 1.176030 16.377300 -0.000001 -0.000001 4.709880 -0.713036 -0.640709 6.456720 -0.000001 -0.000000 -0.981790 -1.320470 3.025740 12.994200 -0.242716 4.980390 -88.247500 -3.900260 -65.782500 5.348090 -0.000007 -0.000001 -65.321000 31.862700 6.978420 24.328600 0.000019 0.000005 3.679550 2.527430 -55.595800 22.291600 -0.000001 0.000005 -5.693010 5.634780 -13.706400 12.994500 -0.242716 -4.980390 88.511600 3.521330 -67.072200 -5.348130 -0.000001 -0.000004 -46.254200 17.812100 -32.492900 -24.328900 0.000322 -0.000009 -3.264340 -0.718276 -77.575000 -22.291500 -0.000108 -0.000004 1.541350 5.579570 -10.188900 -2.192480 -6.469440 -0.000000 179.943000 -2.265910 -37.646800 39.081100 -0.000007 -0.000012 -0.324718 -0.083368 104.401000 40.985400 -0.000006 -0.000013 10.152400 -8.682960 -48.584400 11.754300 -0.000000 0.000003 -0.006544 -0.075711 -19.658600 -2.192510 6.469440 -0.000001 -176.878000 9.519800 168.243000 -39.081100 -0.002282 -0.040193 0.125690 -0.104999 49.385000 -40.985400 0.000008 0.000006 10.968300 -0.685380 -83.585100 -11.754300 -0.000006 -0.000006 -0.943024 -1.050540 -24.672900
0.000000 0.000000 0.000000 0.000000 0.000000 -0.000000 -0.816819 87.608300 -8.627160 92.079600 -4.745590 -6.428450 15.735700 0.000005 -0.000001 108.835000 81.108200 -109.529000 8.984550 -0.406207 -0.000000 9.134000 5.702250 -1.844360 16.377300 -0.000001 -0.000001 5.231100 -0.327396 -0.269512 6.456720 -0.000001 -0.000000 -0.867479 -3.025390 4.172090 12.994200 -0.242716 4.980390 -87.653700 -4.836100 -64.083100 5.348090 -0.000007 -0.000001 -66.365700 29.370000 11.933900 24.328600 0.000019 0.000005 2.944440 1.781850 -58.840300 22.291600 -0.000001 0.000005 -6.179640 5.626030 -13.044000 12.994500 -0.242716 -4.980390 89.023000 2.401010 -67.854000 -5.348130 -0.000001 -0.000004 -46.737900 16.901200 -33.831400 -24.328900 0.000322 -0.000009 -4.966910 -0.829680 -80.534100 -22.291500 -0.000108 -0.000004 1.249650 5.567540 -9.559650 -2.192480 -6.469440 -0.000000 175.476000 -2.131200 -40.632900 39.081100 -0.000007 -0.000012 -0.194233 0.000061 89.984800 40.985400 -0.000006 -0.000013 9.501290 -11.856500 -53.156100 11.754300 -0.000000 0.000003 -0.005909 -0.070018 -19.426300 -2.192510 6.469440 -0.000001 178.114000 8.884400 176.870000 -39.081100 -0.002282 -0.040193 0.075133 -0.087051 39.536800 -40.985400 0.000008 0.000006 10.233700 3.977120 -70.663400 -11.754300 -0.000006 -0.000006 -0.108601 -0.465412 -36.041900
0.000000 0.000000 0.000000 0.000000 0.000000 -0.000000 -0.360585 90.987200 0.439382 92.836100 -6.472970 -7.839440 15.735700 0.000005 -0.000001 114.650000 81.440700 -116.258000 8.984550 -0.406207 -0.000000 7.940790 7.107490 -3.711160 16.377300 -0.000001 -0.000001 5.510950 0.025545 -0.425843 6.456720 -0.000001 -0.000000 -0.933569 -4.071370 5.141250 12.994200 -0.242716 4.980390 -86.828300 -6.229440 -62.949100 5.348090 -0.000007 -0.000001 -68.071800 26.124600 16.124200 24.328600 0.000019 0.000005 3.370390 1.851320 -61.254000 22.291600 -0.000001 0.000005 -5.768940 5.618030 -12.488700 12.994500 -0.242716 -4.980390 89.434900 1.440760 -68.584100 -5.348130 -0.000001 -0.000004 -47.832300 17.419200 -34.595200 -24.328900 0.000322 -0.000009 -4.700190 -0.737214 -81.100500 -22.291500 -0.000108 -0.000004 -0.021600 5.554430 -8.913050 -2.192480 -6.469440 -0.000000 173.705000 -2.198680 -40.761900 39.081100 -0.000007 -0.000012 -0.055663 0.020465 69.819500 40.985400 -0.000006 -0.000013 8.323700 -12.088600 -57.747100 11.754300 -0.000000 0.000003 -0.005495 -0.066183 -19.270000 -2.192510 6.469440 -0.000001 174.305000 11.074000 -178.126000 -39.081100 -0.002282 -0.040193 0.052074 -0.079035 31.680400 -40.985400 0.000008 0.000006 7.798030 10.976900 -51.809200 -11.754300 -0.000006 -0.000006 -0.210088 -0.661603 -45.006400
0.000000 0.000000 0.000000 0.000000 0.000000 -0.000000 -0.326415 93.243500 9.604690 90.931900 -7.081170 -7.377710 15.735700 0.000005 -0.000001 117.818000 81.165600 -119.263000 8.984550 -0.406207 -0.000000 8.028500 8.207170 -3.468930 16.377300 -0.000001 -0.000001 5.629540 0.190963 -1.045240 6.456720 -0.000001 -0.000000 -1.390390 -4.856020 6.200260 12.994200 -0.242716 4.980390 -86.022000 -7.707870 -62.593700 5.348090 -0.000007 -0.000001 -69.901400 22.344300 19.449500 24.328600 0.000019 0.000005 3.459240 1.740840 -63.317400 22.291600 -0.000001 0.000005 -4.777770 5.612140 -12.097900 12.994500 -0.242716 -4.980390 89.623200 0.996454 -69.289700 -5.348130 -0.000001 -0.000004 -48.277600 18.757900 -34.945700 -24.328900 0.000322 -0.000009 -3.924870 -0.656837 -80.507200 -22.291500 -0.000108 -0.000004 -0.596370 5.549400 -8.677900 -2.192480 -6.469440 -0.000000 175.603000 -3.091800 -35.447500 39.081100 -0.000007 -0.000012 0.015435 -0.014995 45.824000 40.985400 -0.000006 -0.000013 6.632790 -6.104460 -61.467300 11.754300 -0.000000 0.000003 -0.004894 -0.060439 -19.035800 -2.192510 6.469440 -0.000001 172.650000 13.075800 -173.200000 -39.081100 -0.002282 -0.040193 0.077019 -0.143613 27.169800 -40.985400 0.000008 0.000006 -1.482080 14.165500 -34.160500 -11.754300 -0.000006 -0.000006 -0.065800 -0.350179 -31.056800
0.000000 0.000000 0.000000 0.000000 0.000000 -0.000000 -0.793916 93.557700 19.342100 87.158900 -7.841720 -6.466600 15.735700 0.000005 -0.000001 121.395000 80.732200 -121.886000 8.984550 -0.406207 -0.000000 8.183820 9.611740 -1.670790 16.377300 -0.000001 -0.000001 4.879060 0.308601 -1.287640 6.456720 -0.000001 -0.000000 -1.017680 -5.287840 6.288580 12.994200 -0.242716 4.980390 -85.355700 -8.856520 -62.182300 5.348090 -0.000007 -0.000001 -71.219500 19.413900 21.386600 24.328600 0.000019 0.000005 4.494130 2.093950 -65.061300 22.291600 -0.000001 0.000005 -3.852770 5.607880 -11.826600 12.994500 -0.242716 -4.980390 89.929900 0.190979 -69.870000 -5.348130 -0.000001 -0.000004 -48.812100 20.695200 -34.294500 -24.328900 0.000322 -0.000009 -3.860960 -0.723828 -79.392200 -22.291500 -0.000108 -0.000004 -0.477640 5.553600 -8.876360 -2.192480 -6.469440 -0.000000 179.422000 -5.658000 -28.589500 39.081100 -0.000007 -0.000012 0.004102 -0.009581 23.175200 40.985400 -0.000006 -0.000013 2.047390 -0.061010 -65.121200 11.754300 -0.000000 0.000003 -0.005493 -0.066167 -19.269300 -2.192510 6.469440 -0.000001 173.905000 12.464100 -169.465000 -39.081100 -0.002282 -0.040193 0.111667 -0.194260 29.153900 -40.985400 0.000008 0.000006 -5.645460 8.621060 -27.787500 -11.754300 -0.000006 -0.000006 -0.022640 -0.181497 -23.993700
